PathFileType	4	(X/Y/Z)	Patient4_TMGait_0pt2_01_left_22.trc.trc
DataRate	CameraRate	NumFrames	NumMarkers	Units	OrigDataRate	OrigDataStartFrame	OrigNumFrames
45.161290322581	45.161290322581	4	33	mm	45.161290322581	106	       141
Frame#	Time	Sacral			L.Shoulder			Chest			R.Shoulder			Neck			R.ASIS			L.ASIS			R.Thigh.Superior			R.Thigh.Lateral			R.Thigh.Inferior			R.Patella			L.Thigh.Superior			L.Thigh.Lateral			L.Thigh.Inferior			L.Patella			L.Shank.Superior			L.Shank.Lateral			L.Shank.Inferior			R.Shank.Superior			R.Shank.Lateral			R.Shank.Inferior			R.Heel			R.Midfoot.Superior			R.Midfoot.Lateral			R.Toe			L.Heel			L.Midfoot.Lateral			L.Midfoot.Superior			L.Toe			L.Elbow			L.Wrist			R.Elbow			R.Wrist			
		X1	Y1	Z1	X2	Y2	Z2	X3	Y3	Z3	X4	Y4	Z4	X5	Y5	Z5	X6	Y6	Z6	X7	Y7	Z7	X8	Y8	Z8	X9	Y9	Z9	X10	Y10	Z10	X11	Y11	Z11	X12	Y12	Z12	X13	Y13	Z13	X14	Y14	Z14	X15	Y15	Z15	X16	Y16	Z16	X17	Y17	Z17	X18	Y18	Z18	X19	Y19	Z19	X20	Y20	Z20	X21	Y21	Z21	X22	Y22	Z22	X23	Y23	Z23	X24	Y24	Z24	X25	Y25	Z25	X26	Y26	Z26	X27	Y27	Z27	X28	Y28	Z28	X29	Y29	Z29	X30	Y30	Z30	X31	Y31	Z31	X32	Y32	Z32	X33	Y33	Z33	

106	52.795000000000	829.184514270454	989.813448016248	564.086684359300	988.975157179336	1408.959819126772	353.585375117324	1100.195039446387	1350.862935010465	512.824229074272	1026.506824908598	1428.793935968600	688.735970405958	979.055323895005	1480.803590504515	508.735651589127	1067.606717064933	931.257661073877	668.810575256819	1035.067702916224	944.721703320487	395.799221914746	1111.712246600757	730.001102763592	618.144882281599	1035.297036184156	611.767818847235	671.049194088408	1104.618252738637	567.741327135420	579.793899263431	1104.598891452133	471.792438378373	577.285656273388	1122.909972606164	762.858636210734	425.306603893389	1078.803074048758	636.656999260323	343.238462360635	1180.425672388017	573.148401544360	407.027466282367	1190.457138433329	482.871501976271	394.592639211218	1119.104421305556	419.914222849476	381.146804690808	973.926303521545	390.147373471685	331.483570284197	953.823145321245	256.671157664369	374.004188023313	1058.103361770062	385.915298659222	580.779587993874	977.114380281546	290.741960111402	644.499419898715	991.510552030053	196.392019246301	572.130642097762	828.990571012538	45.390379404854	550.637584507609	1003.474910287646	96.131381757725	575.272104574058	916.868316765236	38.187672580986	619.061886543443	1124.036519143762	40.992227014951	596.846952483831	762.486404537377	217.733864724367	414.283703315551	806.173930015698	164.530186250831	329.434839335378	912.213453978183	148.870426050921	344.767373395980	964.443462886558	28.470327619040	308.520171261019	963.108358100333	1046.787995518510	263.092534022729	1028.640092049683	795.235542684745	268.440095852773	1063.973559878134	1082.088656577699	822.540250635488	1235.356678240354	887.032860605195	811.980067916160	
107	52.817142857143	829.181866095040	989.060728572146	567.369668615976	985.245629876107	1407.805195233554	354.129412576315	1099.371806871616	1350.107878114500	511.447426607746	1028.868638258330	1428.411533653507	688.533069230824	978.173644185788	1479.978525286953	509.075386664123	1068.582138141795	930.269915214380	668.930875959087	1032.879598203262	944.130021390079	396.373667408901	1111.886030962844	728.810873493646	618.062857991303	1035.671696333219	610.688239579830	671.244806642473	1104.303548663644	566.738513900681	579.358497557079	1103.992465682976	470.492927184428	576.645059377913	1123.821015537978	765.714815316535	426.721515965785	1082.570976510483	638.585164478287	344.590813780781	1185.381177727522	577.096467371024	408.643829300811	1197.222064746188	486.726462612973	395.817597044266	1126.713216214960	422.609853778749	382.461642581995	981.367697137962	390.755623945773	334.398364332697	964.410283804264	256.740911313099	376.303191385510	1056.642093775670	384.846895671230	580.376072913969	975.232953625907	290.247506238493	644.457117071025	988.355894515493	195.871518774174	571.986267255571	824.633385977349	45.613132791389	550.741962090393	999.155933783254	96.094982121392	575.309955754579	912.507775679757	38.230024452574	619.144483722848	1119.664416086925	40.794518975211	596.865373611362	774.678858597783	212.747209603552	418.609385754555	818.548019531443	162.260754482324	332.445888154849	924.815761850600	149.475891895877	346.623188382781	979.576967575194	29.373088300317	307.477730058435	944.786211661295	1046.610875423943	267.069034076550	992.152333311451	790.565466851951	274.158695990437	1080.602351675227	1083.671568658423	822.197544776506	1266.674517457620	903.237803675989	804.801438340757	
108	52.839285714286	829.148855071391	988.931043811515	570.365690483977	981.701538112973	1407.289636746422	354.727285555009	1098.771104722370	1349.698856479605	509.890569886373	1031.711493579293	1428.344638225795	688.171506538546	977.610434647470	1479.590365373460	509.445421888709	1069.479277420559	929.550580549208	668.577943404021	1030.494719837210	943.994909128056	396.539190189103	1111.492861416486	727.765048894560	617.670956048116	1035.305441028921	609.954792090012	671.302782946712	1103.133216122193	565.913105609399	578.838779563313	1102.402318719811	469.522271700669	576.005112079258	1123.768294766891	768.419049691723	427.613486599603	1084.640585110526	640.483911446237	345.667854169265	1188.350128881051	580.699903841401	409.880286781164	1201.912422571841	490.566702179124	396.765752343654	1132.906183197240	425.188925057736	383.467912210980	988.158139951044	389.536829064074	336.799507387950	975.907040618203	255.061731810855	378.178857118207	1054.429456741672	384.107516011468	580.011739644942	972.786839237021	289.943389408832	644.455735585395	984.890802556456	195.547656277836	571.906857160019	820.258367801057	45.856411241249	550.875681477851	994.826227799676	96.078494469149	575.386465251817	908.137706171419	38.287427573889	619.259042192118	1115.275293093981	40.629403203468	596.878448409023	788.659511816407	203.077976863491	422.131297281819	833.598968383657	156.332383929371	334.790778358659	939.877969720563	148.399320702232	348.076933562446	999.285420986362	30.648167216606	306.242459790669	926.465573141578	1047.996835508208	270.630410517348	957.511317649039	789.181757333060	279.867421920559	1097.237411458487	1086.218433015147	821.441990333887	1296.508952009708	921.532039032591	796.761910533165	
109	52.861428571429	829.067970263751	989.447001265898	573.090201044309	978.377916012484	1407.438829828722	355.362983111138	1098.399764588947	1349.647060886906	508.149917551472	1035.026886947934	1428.599847261631	687.632939102478	977.388072305095	1479.652668753442	509.841620760611	1070.289545763695	929.128021030453	667.749451371366	1027.899868681080	944.338542659899	396.292600292315	1110.519744446298	726.900047702830	616.973484916893	1034.201095222210	609.594255000569	671.252004406334	1101.094345740599	565.288301815467	578.261916482945	1099.825695284088	468.905023951242	575.415208578185	1122.755241517479	770.923309797009	427.990855705544	1085.037260497101	642.299072519416	346.431379033171	1189.331532988377	583.869248667304	410.732848533792	1204.537688145072	494.333660189235	397.420090964606	1137.721194551214	427.623470408964	384.122290797910	994.505894127665	386.530939041804	338.483585826844	988.426539614844	251.794578722054	379.471881046497	1051.464276704155	383.717340753672	579.721265756491	969.770191097343	289.844898382692	644.517744959417	981.113574280198	195.435422106810	571.904681922376	815.866848087646	46.128823248857	551.040626366189	990.489710958603	96.082127717947	575.503663432125	903.758807162630	38.364571114813	619.405055880263	1110.869546928048	40.490039749455	596.887054013068	804.683731861888	189.336323999508	424.540120843922	851.475268847901	147.152251852433	336.257805347268	957.427387678292	145.729818278537	349.004897367573	1023.237958714369	32.249966341927	304.911643832085	908.457937912231	1050.907466137626	273.814501807242	925.201495081621	790.678896170674	285.495455112388	1113.765503834441	1089.672290690154	820.257225227359	1324.538887615246	941.606086651554	787.969269737628	
